<?xml version="1.0" standalone="no"?>
<!DOCTYPE svg PUBLIC "-//W3C//DTD SVG 20010904//EN"
 "http://www.w3.org/TR/2001/REC-SVG-20010904/DTD/svg10.dtd">
<svg version="1.0" xmlns="http://www.w3.org/2000/svg"
 width="828.000000pt" height="828.000000pt" viewBox="0 0 828.000000 828.000000"
 preserveAspectRatio="xMidYMid meet">

<g transform="translate(0.000000,828.000000) scale(0.100000,-0.100000)"
fill="#000000" stroke="none">
<path d="M3785 8273 c-16 -2 -91 -10 -165 -18 -133 -15 -349 -55 -505 -94
-437 -107 -949 -340 -1319 -599 -28 -19 -64 -45 -81 -56 -50 -35 -267 -208
-320 -256 -127 -114 -277 -267 -387 -395 -150 -174 -140 -162 -219 -270 -298
-411 -525 -880 -649 -1345 -12 -47 -28 -105 -35 -130 -16 -55 -68 -341 -85
-465 -7 -49 -15 -247 -17 -440 -4 -307 -2 -373 16 -535 11 -102 30 -234 41
-295 32 -172 104 -444 141 -539 10 -27 19 -53 19 -58 0 -13 103 -272 145 -363
150 -329 352 -648 594 -940 90 -108 364 -387 463 -470 39 -33 78 -67 86 -75 8
-8 25 -22 38 -30 12 -8 58 -42 101 -76 566 -439 1345 -746 2067 -815 138 -13
877 -6 966 10 378 65 532 101 770 181 93 31 214 75 245 90 11 5 54 23 95 40
320 135 661 342 950 575 170 138 183 150 342 309 425 427 741 921 956 1496
117 314 208 709 231 1009 14 173 14 728 1 862 -6 57 -18 142 -26 189 -8 47
-19 112 -25 145 -38 234 -152 600 -284 910 -65 154 -222 435 -342 616 -61 91
-226 315 -242 329 -3 3 -28 32 -56 65 -118 142 -367 384 -560 544 -320 264
-815 538 -1232 682 -164 56 -433 130 -543 148 -36 6 -87 15 -115 21 -157 33
-411 50 -719 49 -171 -1 -324 -4 -341 -6z m540 -93 c358 -17 697 -78 1075
-195 249 -76 557 -218 839 -385 357 -212 739 -542 1013 -875 89 -109 208 -263
208 -271 0 -2 17 -28 38 -57 174 -238 390 -685 500 -1032 103 -328 155 -617
183 -1015 25 -355 -20 -817 -116 -1202 -28 -112 -123 -417 -135 -433 -4 -5
-13 -28 -20 -50 -33 -105 -172 -393 -268 -555 -189 -322 -371 -559 -637 -826
-266 -267 -507 -454 -835 -647 -88 -51 -372 -197 -384 -197 -3 0 -34 -13 -68
-29 -35 -15 -81 -34 -103 -41 -22 -7 -44 -16 -50 -20 -5 -4 -89 -33 -185 -63
-378 -119 -727 -179 -1130 -193 -548 -20 -1186 101 -1700 324 -229 99 -527
262 -667 364 -29 21 -54 38 -57 38 -5 0 -216 158 -226 170 -3 3 -43 37 -90 76
-124 104 -324 303 -432 429 -105 124 -275 349 -331 440 -21 33 -43 69 -50 79
-59 94 -87 144 -150 268 -115 224 -164 341 -235 553 -88 263 -133 451 -179
752 -26 169 -28 196 -28 548 0 251 4 394 13 445 6 41 19 122 27 180 77 555
298 1125 628 1620 38 58 79 117 91 132 11 15 32 43 46 63 14 20 30 42 35 48 6
7 32 39 59 72 153 191 410 445 601 597 44 34 89 71 99 80 11 10 23 18 27 18 4
0 14 6 21 13 37 35 259 180 398 259 529 301 1177 490 1775 517 88 5 169 9 180
9 11 1 110 -3 220 -8z"/>
<path d="M2406 6443 c-10 -50 -16 -151 -7 -118 5 20 10 25 13 15 3 -8 16 -44
28 -80 13 -36 31 -81 41 -100 9 -19 32 -64 49 -100 18 -36 42 -78 53 -95 27
-38 158 -203 186 -232 42 -45 -3 -22 -49 25 -27 26 -59 49 -72 50 -32 5 -90
51 -82 65 5 9 3 9 -6 0 -17 -16 -2 -28 150 -130 96 -64 283 -223 263 -223 -3
0 7 -10 21 -21 21 -17 25 -24 14 -30 -9 -6 -7 -9 8 -9 22 0 68 -42 58 -53 -3
-3 8 -13 25 -22 17 -8 31 -20 31 -26 0 -9 -38 6 -50 20 -3 3 -23 12 -45 20
-22 7 -51 23 -64 35 -13 11 -21 15 -17 9 10 -18 3 -17 -99 13 -246 72 -300 97
-414 190 l-56 46 56 -54 c77 -72 167 -124 269 -154 47 -14 117 -34 155 -45
147 -44 302 -113 347 -156 15 -14 25 -29 23 -33 -2 -4 7 -12 21 -19 14 -6 23
-15 20 -20 -3 -4 6 -14 20 -21 13 -8 22 -20 20 -27 -3 -7 1 -13 10 -13 8 0 18
-8 21 -17 4 -10 16 -27 27 -39 34 -34 76 -88 76 -96 0 -4 -4 -8 -9 -8 -14 0
-168 79 -156 80 20 3 -31 19 -61 19 -24 1 -184 50 -469 146 -13 4 -11 1 5 -8
14 -8 124 -47 245 -86 121 -40 241 -80 267 -90 79 -31 221 -113 209 -120 -6
-4 4 -12 24 -19 33 -12 52 -42 40 -61 -3 -5 8 -18 25 -27 16 -10 30 -24 30
-32 0 -7 -3 -11 -7 -9 -5 3 -17 1 -28 -4 l-20 -9 20 2 c11 0 34 -5 50 -12 l30
-13 -25 -7 c-14 -5 -20 -8 -13 -9 6 -1 24 -6 40 -12 22 -8 24 -12 13 -19 -13
-8 -13 -10 1 -10 9 0 20 -7 23 -16 12 -31 6 -37 -17 -16 -12 11 -33 25 -47 31
-22 8 -22 10 -5 11 11 1 -2 8 -28 16 -26 8 -45 19 -42 24 3 4 -11 14 -31 20
-19 7 -38 18 -41 26 -3 8 -13 14 -22 14 -9 0 -26 7 -38 15 -18 13 -196 85
-209 85 -3 0 -3 -4 0 -9 3 -4 26 -14 51 -21 62 -17 71 -35 14 -26 -82 12 -139
30 -139 43 0 8 11 13 28 13 25 0 24 1 -13 19 -22 11 -76 31 -121 45 -84 27
-164 72 -164 91 0 7 17 16 37 21 21 5 39 16 41 25 2 12 -24 25 -110 54 -149
50 -149 50 -138 79 8 22 3 26 -66 61 -43 22 -102 64 -140 100 -58 54 -66 66
-60 88 3 15 -1 44 -10 69 -43 117 -54 153 -45 156 6 2 1 18 -10 35 -20 34 -25
57 -10 57 5 0 19 -20 31 -46 12 -25 25 -43 27 -40 4 4 -11 139 -31 275 -5 32
3 53 18 44 6 -4 4 1 -4 11 -10 13 -14 41 -13 95 1 68 0 64 -9 -34 -8 -88 -7
-130 5 -205 8 -52 13 -97 10 -100 -2 -2 -13 1 -23 8 -11 7 -22 12 -25 12 -15
0 0 -86 34 -189 21 -65 37 -129 34 -142 -5 -30 44 -90 128 -155 57 -44 59 -47
44 -65 -16 -17 -15 -19 15 -37 25 -16 235 -96 308 -118 22 -6 13 -20 -20 -29
-18 -6 -34 -18 -36 -27 -5 -24 86 -80 186 -114 60 -20 82 -32 80 -43 -5 -30
12 -39 110 -62 53 -13 99 -24 101 -26 2 -1 -1 -9 -8 -16 -16 -20 -2 -28 104
-63 135 -44 278 -146 341 -246 l24 -37 -25 -25 c-32 -32 -31 -47 4 -96 l28
-40 -3 -212 c-2 -117 -4 -300 -4 -405 0 -163 -2 -193 -15 -193 -23 0 -54 71
-141 325 -14 39 -29 79 -34 90 -5 11 -19 45 -30 75 -36 95 -94 225 -105 232
-15 11 -63 9 -70 -2 -4 -6 -9 -253 -12 -549 l-6 -538 24 -17 c28 -20 63 -21
78 -2 7 8 11 65 10 162 -3 341 2 502 15 513 22 19 28 7 126 -259 24 -63 51
-133 61 -155 30 -66 69 -168 69 -178 0 -6 16 -30 36 -53 41 -50 80 -60 89 -21
7 33 10 452 6 862 -1 198 0 402 5 453 l7 93 41 24 c51 29 213 72 304 80 107 9
130 15 134 31 2 9 46 30 113 53 133 46 253 103 248 118 -2 6 33 32 79 57 104
57 122 71 115 89 -3 9 27 48 79 103 52 56 84 97 84 111 0 12 4 24 9 27 5 3 7
15 4 26 -3 12 1 22 11 26 9 3 16 12 16 19 0 6 9 20 20 30 11 10 18 21 15 24
-3 3 -23 -14 -44 -37 -21 -23 -36 -42 -32 -42 3 0 -3 -7 -13 -15 -17 -13 -18
-15 -3 -15 24 0 21 -14 -8 -41 -13 -13 -25 -29 -25 -36 0 -25 -47 -35 -228
-49 -103 -8 -218 -19 -257 -24 -59 -7 -51 -8 50 -4 123 5 299 19 369 30 l40 6
-57 -64 c-31 -36 -57 -72 -57 -81 0 -9 -20 -28 -45 -43 -39 -23 -65 -28 -198
-40 -421 -38 -465 -44 -561 -85 -39 -16 -72 -26 -75 -23 -3 3 9 19 27 35 17
16 32 33 32 39 0 5 11 17 25 26 14 9 22 20 19 25 -3 5 9 17 26 28 21 12 27 21
18 24 -8 3 -1 10 18 18 17 8 29 20 27 26 -6 16 172 200 211 220 68 35 212 67
466 103 80 12 174 28 209 36 44 10 67 11 71 4 4 -7 13 -3 25 10 16 18 16 20 2
20 -25 0 -21 10 24 65 54 67 89 121 89 139 0 8 14 40 30 72 21 39 27 60 19 64
-7 5 -2 24 16 60 14 28 24 54 22 56 -2 2 -12 -14 -22 -37 -10 -22 -26 -46 -34
-52 -22 -16 -27 -49 -6 -41 9 4 15 1 14 -7 -1 -26 -55 -104 -80 -116 l-24 -13
30 -1 30 -1 -29 -12 c-18 -8 -24 -15 -16 -18 16 -5 -26 -68 -88 -134 -42 -45
-62 -51 -249 -74 -127 -16 -303 -49 -381 -72 -74 -21 -103 -18 -67 8 11 8 36
29 55 47 66 62 135 115 157 121 12 4 20 12 18 19 -5 13 136 122 189 147 18 8
31 20 30 25 -2 6 20 26 48 45 29 19 69 50 91 68 21 17 45 32 52 32 8 0 18 6
22 14 4 8 42 41 83 74 41 33 111 91 155 130 44 38 82 69 84 67 7 -7 -58 -135
-68 -135 -6 0 -11 -10 -11 -22 0 -12 -8 -30 -17 -41 -17 -19 -17 -20 5 -8 12
7 27 9 32 6 6 -3 10 -1 10 4 0 6 -4 11 -10 11 -15 0 -12 15 13 57 30 51 78
165 72 172 -17 16 -389 -59 -510 -103 -48 -17 -73 -22 -81 -15 -9 7 -28 2 -66
-17 -50 -25 -164 -100 -199 -131 -10 -8 -26 -12 -41 -8 -30 8 -68 -22 -209
-162 -56 -54 -99 -89 -101 -82 -2 7 -9 9 -15 6 -26 -17 -184 -238 -219 -307
-20 -41 -39 -69 -41 -62 -20 57 -92 -113 -137 -325 l-23 -108 -27 85 c-32 105
-39 115 -72 115 -24 0 -28 6 -50 85 -35 120 -73 194 -102 198 -19 3 -31 20
-58 79 -75 164 -185 291 -208 241 -5 -10 -8 -10 -12 1 -17 37 -159 239 -186
265 l-31 28 -16 -21 c-16 -21 -17 -20 -80 55 -38 45 -77 82 -98 90 -19 8 -48
31 -66 51 -48 55 -129 129 -185 171 -101 76 -222 195 -222 219 0 32 -17 29
-24 -4z m100 -105 c30 -28 54 -60 54 -71 0 -10 5 -15 10 -12 14 9 101 -55 178
-129 59 -57 62 -63 62 -108 0 -64 35 -155 103 -268 58 -99 104 -197 95 -206
-7 -6 -132 123 -136 141 -2 8 -9 12 -17 9 -7 -3 -16 3 -20 15 -3 12 -10 21
-14 21 -5 0 -34 31 -66 70 -32 38 -61 67 -65 65 -3 -2 -7 13 -8 33 -2 41 -33
165 -39 158 -2 -2 3 -31 11 -64 9 -33 16 -66 16 -73 -2 -55 -194 277 -218 376
-21 86 -22 95 -11 95 6 0 35 -23 65 -52z m2944 -257 c0 -9 -134 -131 -145
-131 -3 0 -18 -14 -32 -31 -18 -21 -28 -27 -33 -18 -5 8 -10 5 -14 -9 -6 -18
-29 -35 -40 -29 -2 1 -14 -10 -26 -25 -12 -16 -27 -28 -35 -28 -7 0 -19 -7
-26 -16 -14 -18 -126 -94 -137 -94 -4 0 -13 -9 -20 -20 -7 -11 -17 -20 -23
-20 -6 0 -32 -18 -57 -41 -27 -23 -48 -36 -50 -29 -2 6 -13 -3 -24 -21 -30
-49 -44 -23 -20 37 11 27 26 72 35 101 8 28 40 99 71 156 l56 105 92 30 c183
60 202 61 167 9 l-21 -32 22 24 c11 13 24 30 28 38 5 7 52 22 107 32 120 23
125 23 125 12z m-2593 -71 c13 -17 29 -28 33 -25 17 10 39 -8 106 -86 l69 -81
17 22 c13 16 19 18 22 9 16 -52 56 -206 56 -216 0 -7 8 -20 19 -30 10 -10 24
-36 32 -58 7 -22 19 -47 26 -56 16 -19 87 -185 97 -225 4 -16 9 -37 12 -46 10
-33 -15 -19 -35 20 -11 20 -20 33 -21 28 0 -15 -50 36 -50 51 0 7 -7 13 -15
13 -8 0 -20 9 -27 20 -7 11 -19 20 -26 20 -7 0 -18 11 -24 25 -6 14 -22 32
-35 40 -12 9 -23 22 -23 29 0 8 -8 16 -17 18 -11 3 -32 37 -52 84 -19 43 -57
117 -85 164 -70 116 -109 206 -114 263 -2 26 -1 47 2 47 4 0 19 -14 33 -30z
m2042 -49 c10 -7 5 -23 -27 -78 -22 -38 -68 -138 -103 -223 -57 -143 -84 -190
-107 -190 -5 0 -29 -19 -53 -42 -37 -37 -44 -40 -47 -24 -3 14 -9 8 -23 -23
-20 -45 -56 -59 -46 -18 25 110 97 304 143 387 14 25 18 36 8 25 -30 -37 -86
-168 -135 -320 -52 -159 -61 -180 -72 -174 -3 2 -14 -6 -22 -19 -9 -12 -21
-20 -26 -17 -5 4 -9 -1 -9 -9 0 -8 -9 -20 -20 -26 -27 -15 -27 -8 14 149 19
72 30 134 25 136 -5 3 -11 -7 -14 -22 -12 -56 -24 -99 -45 -157 -12 -33 -19
-68 -17 -78 3 -10 1 -16 -3 -13 -5 3 -11 -9 -15 -27 -9 -42 -35 -98 -45 -98
-5 0 -11 8 -13 18 -3 11 -5 9 -6 -8 -2 -32 -16 -54 -29 -46 -6 3 -12 -4 -14
-16 -2 -13 -7 -22 -13 -22 -5 1 -15 -10 -22 -25 -11 -24 -11 -24 -12 -4 -1 12
8 68 19 125 10 57 24 135 30 173 13 86 61 255 72 255 4 0 48 42 97 92 49 51
92 90 96 86 4 -4 -2 -20 -13 -36 -27 -38 -64 -131 -59 -151 1 -9 11 11 22 43
30 96 150 264 162 229 8 -21 26 -15 77 27 26 22 50 40 52 40 5 0 -6 -20 -33
-60 -22 -33 -5 -16 40 42 36 45 127 107 157 108 8 0 21 -4 29 -9z m-1715 -203
c26 -40 67 -103 91 -140 36 -57 45 -65 55 -53 7 8 18 15 24 15 20 0 86 -87 93
-122 5 -23 8 -27 12 -15 4 12 18 -11 45 -71 49 -111 62 -133 81 -126 20 8 51
-45 81 -143 14 -45 27 -92 29 -104 8 -41 17 -59 26 -54 5 4 9 3 9 -2 4 -91 13
-219 17 -223 2 -3 3 44 1 103 -3 103 -2 108 17 105 23 -3 32 -42 15 -63 -6 -8
-8 -20 -4 -27 4 -7 11 -28 15 -48 l7 -35 1 38 c1 52 15 39 30 -28 10 -45 10
-74 0 -143 -14 -101 -34 -139 -24 -47 3 33 9 72 11 88 3 16 1 27 -5 27 -6 0
-11 -15 -12 -32 -1 -31 -1 -32 -9 -8 -7 22 -8 21 -9 -12 -1 -52 -21 -48 -22 5
0 23 -3 36 -6 30 -12 -30 -52 39 -55 94 -1 37 -1 37 -5 5 -4 -33 -23 -35 -23
-2 0 10 -7 20 -15 24 -8 3 -15 15 -15 26 0 11 -4 20 -10 20 -5 0 -13 12 -16
28 -4 15 -10 32 -14 37 -13 18 -42 164 -34 176 4 7 3 9 -4 5 -6 -3 -15 7 -21
26 -17 57 -50 192 -54 223 -4 30 -4 30 -6 -4 -1 -36 15 -105 59 -251 34 -113
45 -170 34 -170 -5 0 -24 22 -43 49 -18 27 -41 58 -50 68 -59 65 -61 70 -63
187 l-2 111 -6 -105 c-4 -76 -8 -99 -15 -85 -5 11 -15 26 -22 33 -7 7 -13 36
-13 63 0 27 -4 49 -9 49 -5 0 -23 37 -41 82 -18 46 -57 134 -87 197 -29 62
-61 141 -70 175 -10 33 -21 63 -25 64 -11 5 -10 32 1 32 4 0 29 -33 55 -72z
m1043 -262 c-9 -24 -36 -163 -68 -356 -29 -175 -46 -229 -70 -214 -5 3 -9 -2
-9 -11 0 -27 -20 -6 -21 23 -2 24 -2 24 -6 4 -2 -12 -13 -27 -24 -32 -17 -10
-19 -7 -20 32 l-1 43 -9 -55 c-20 -118 -42 -202 -50 -188 -6 9 -9 7 -9 -9 0
-13 -6 -23 -14 -23 -11 0 -12 8 -6 34 4 19 6 45 3 58 -2 13 5 69 16 125 12 55
21 116 20 135 -1 30 -2 30 -10 -12 -32 -155 -41 -190 -49 -185 -4 3 -11 -21
-15 -53 -3 -32 -11 -65 -17 -73 -19 -28 1 135 32 250 33 119 54 171 70 171 6
0 9 3 9 8 -3 20 2 30 17 28 10 -1 31 28 60 83 46 85 151 231 167 231 5 0 7 -6
4 -14z m-1582 -224 c10 -6 19 -52 11 -52 -2 0 -20 7 -41 15 -30 13 -35 18 -25
30 13 16 39 19 55 7z m1389 -409 c-4 -16 -15 -37 -25 -48 -17 -17 -19 -18 -19
-2 0 9 4 17 9 17 5 0 12 14 16 30 4 17 11 30 16 30 5 0 6 -12 3 -27z m709 0
c4 -4 -7 -13 -24 -20 -17 -7 -28 -17 -24 -22 8 -14 -154 -93 -177 -85 -10 3
-18 1 -18 -5 0 -6 -14 -11 -31 -11 -16 0 -28 -4 -25 -9 6 -9 -25 -15 -179 -36
l-100 -14 87 5 c49 3 89 1 92 -5 8 -12 -17 -21 -41 -15 -24 7 -291 -52 -355
-77 -58 -23 -58 -23 -58 -5 0 8 10 18 22 22 13 4 27 13 33 20 5 7 26 18 45 23
30 9 31 10 5 6 -16 -2 -41 -8 -55 -11 -21 -6 -23 -5 -13 8 7 8 10 18 7 21 -4
3 7 9 22 12 45 10 51 13 27 14 -16 1 -21 6 -17 16 4 8 12 15 20 15 8 0 14 4
14 9 0 28 160 88 269 101 42 5 111 14 153 20 42 6 127 15 190 19 62 4 116 9
119 10 3 0 9 -2 12 -6z m-1333 -60 c27 -14 47 -30 44 -35 -3 -4 2 -8 12 -8 19
0 114 -60 114 -72 0 -10 -41 10 -55 27 -5 7 -23 16 -40 19 -16 4 -60 16 -98
27 l-67 20 17 24 c10 13 19 25 21 25 1 0 24 -12 52 -27z m491 -60 c-8 -26 -7
-39 0 -44 8 -4 8 -12 2 -24 -17 -30 -24 39 -11 98 8 34 13 44 16 30 2 -12 -1
-39 -7 -60z m-24 -85 c-3 -8 -6 -5 -6 6 -1 11 2 17 5 13 3 -3 4 -12 1 -19z
m-172 -38 c3 -5 1 -10 -4 -10 -6 0 -11 5 -11 10 0 6 2 10 4 10 3 0 8 -4 11
-10z"/>
<path d="M2572 6232 c2 -4 16 -42 32 -85 16 -43 31 -76 33 -73 5 5 -56 166
-64 166 -2 0 -3 -4 -1 -8z"/>
<path d="M2752 5950 c0 -14 2 -19 5 -12 2 6 2 18 0 25 -3 6 -5 1 -5 -13z"/>
<path d="M2801 5804 c0 -11 3 -14 6 -6 3 7 2 16 -1 19 -3 4 -6 -2 -5 -13z"/>
<path d="M5035 5930 c-9 -16 -13 -30 -11 -30 3 0 12 14 21 30 9 17 13 30 11
30 -3 0 -12 -13 -21 -30z"/>
<path d="M5130 5925 c-7 -9 -11 -17 -9 -20 3 -2 10 5 17 15 14 24 10 26 -8 5z"/>
<path d="M4925 5879 c-4 -6 -5 -12 -2 -15 2 -3 7 2 10 11 7 17 1 20 -8 4z"/>
<path d="M5000 5869 c-7 -11 -10 -23 -7 -25 2 -2 9 7 15 21 14 30 7 33 -8 4z"/>
<path d="M5071 5830 c-17 -28 -31 -54 -31 -58 0 -8 35 41 56 81 24 45 8 30
-25 -23z"/>
<path d="M5126 5853 c-6 -14 -5 -15 5 -6 7 7 10 15 7 18 -3 3 -9 -2 -12 -12z"/>
<path d="M4880 5784 c-21 -49 -26 -70 -9 -41 17 29 40 87 34 87 -3 0 -15 -21
-25 -46z"/>
<path d="M4836 5684 c-9 -20 -14 -39 -12 -42 3 -3 13 12 21 33 9 20 14 39 12
41 -2 2 -11 -13 -21 -32z"/>
<path d="M3112 5700 c0 -14 2 -19 5 -12 2 6 2 18 0 25 -3 6 -5 1 -5 -13z"/>
<path d="M3101 5515 c1 -19 18 -51 18 -35 0 8 -4 22 -9 30 -5 8 -9 11 -9 5z"/>
<path d="M3201 5464 c0 -11 3 -14 6 -6 3 7 2 16 -1 19 -3 4 -6 -2 -5 -13z"/>
<path d="M3251 5394 c0 -11 3 -14 6 -6 3 7 2 16 -1 19 -3 4 -6 -2 -5 -13z"/>
<path d="M4636 5703 c-6 -14 -5 -15 5 -6 7 7 10 15 7 18 -3 3 -9 -2 -12 -12z"/>
<path d="M4590 5516 c-15 -39 -12 -46 6 -13 9 16 13 31 10 34 -3 3 -10 -6 -16
-21z"/>
<path d="M4566 5455 c-9 -26 -7 -32 5 -12 6 10 9 21 6 23 -2 3 -7 -2 -11 -11z"/>
<path d="M4191 5124 c0 -11 3 -14 6 -6 3 7 2 16 -1 19 -3 4 -6 -2 -5 -13z"/>
<path d="M3403 5410 c0 -25 2 -35 4 -22 2 12 2 32 0 45 -2 12 -4 2 -4 -23z"/>
<path d="M3592 5160 c0 -14 2 -19 5 -12 2 6 2 18 0 25 -3 6 -5 1 -5 -13z"/>
<path d="M3611 5004 c0 -11 3 -14 6 -6 3 7 2 16 -1 19 -3 4 -6 -2 -5 -13z"/>
<path d="M3642 4915 c0 -16 2 -22 5 -12 2 9 2 23 0 30 -3 6 -5 -1 -5 -18z"/>
<path d="M3703 4875 c0 -22 2 -30 4 -17 2 12 2 30 0 40 -3 9 -5 -1 -4 -23z"/>
<path d="M4041 5224 c0 -11 3 -14 6 -6 3 7 2 16 -1 19 -3 4 -6 -2 -5 -13z"/>
<path d="M4031 5174 c0 -11 3 -14 6 -6 3 7 2 16 -1 19 -3 4 -6 -2 -5 -13z"/>
<path d="M3962 5120 c0 -14 2 -19 5 -12 2 6 2 18 0 25 -3 6 -5 1 -5 -13z"/>
<path d="M4101 5034 c0 -11 3 -14 6 -6 3 7 2 16 -1 19 -3 4 -6 -2 -5 -13z"/>
<path d="M4092 4980 c0 -14 2 -19 5 -12 2 6 2 18 0 25 -3 6 -5 1 -5 -13z"/>
<path d="M3945 4825 c-3 -31 -4 -59 -2 -62 3 -2 9 21 12 52 4 31 5 58 2 61 -2
3 -8 -20 -12 -51z"/>
<path d="M4393 4763 c26 -2 67 -2 90 0 23 2 2 3 -48 3 -49 0 -68 -1 -42 -3z"/>
<path d="M4088 4733 c7 -3 16 -2 19 1 4 3 -2 6 -13 5 -11 0 -14 -3 -6 -6z"/>
<path d="M4238 4733 c12 -2 30 -2 40 0 9 3 -1 5 -23 4 -22 0 -30 -2 -17 -4z"/>
<path d="M4048 4723 c7 -3 16 -2 19 1 4 3 -2 6 -13 5 -11 0 -14 -3 -6 -6z"/>
<path d="M4148 4723 c6 -2 18 -2 25 0 6 3 1 5 -13 5 -14 0 -19 -2 -12 -5z"/>
<path d="M4358 4713 c7 -3 16 -2 19 1 4 3 -2 6 -13 5 -11 0 -14 -3 -6 -6z"/>
<path d="M4078 4673 c7 -3 16 -2 19 1 4 3 -2 6 -13 5 -11 0 -14 -3 -6 -6z"/>
<path d="M4055 4650 c-19 -5 -6 -6 35 -3 36 3 67 7 69 9 8 7 -73 2 -104 -6z"/>
<path d="M4118 4633 c7 -3 16 -2 19 1 4 3 -2 6 -13 5 -11 0 -14 -3 -6 -6z"/>
<path d="M4068 4623 c7 -3 16 -2 19 1 4 3 -2 6 -13 5 -11 0 -14 -3 -6 -6z"/>
<path d="M3398 4773 c7 -3 16 -2 19 1 4 3 -2 6 -13 5 -11 0 -14 -3 -6 -6z"/>
<path d="M2383 6255 c0 -22 2 -30 4 -17 2 12 2 30 0 40 -3 9 -5 -1 -4 -23z"/>
<path d="M2400 6017 c0 -2 14 -20 31 -38 l31 -34 -21 32 c-20 30 -41 50 -41
40z"/>
<path d="M2500 5905 c19 -19 36 -35 39 -35 3 0 -10 16 -29 35 -19 19 -36 35
-39 35 -3 0 10 -16 29 -35z"/>
<path d="M5270 5820 c-9 -6 -10 -10 -3 -10 6 0 15 5 18 10 8 12 4 12 -15 0z"/>
<path d="M5260 5715 c-19 -7 -28 -14 -20 -14 8 0 29 6 45 14 39 17 21 18 -25
0z"/>
<path d="M5105 5672 c-33 -9 -53 -17 -45 -19 8 -2 42 6 75 16 73 23 53 25 -30
3z"/>
<path d="M2530 5676 c0 -3 9 -10 20 -16 11 -6 20 -8 20 -6 0 3 -9 10 -20 16
-11 6 -20 8 -20 6z"/>
<path d="M4948 5623 c7 -3 16 -2 19 1 4 3 -2 6 -13 5 -11 0 -14 -3 -6 -6z"/>
<path d="M2758 5613 c7 -3 16 -2 19 1 4 3 -2 6 -13 5 -11 0 -14 -3 -6 -6z"/>
<path d="M5130 5590 c-12 -8 -12 -10 5 -10 11 0 27 5 35 10 12 8 12 10 -5 10
-11 0 -27 -5 -35 -10z"/>
<path d="M2761 5576 c2 -2 27 -6 54 -9 34 -4 42 -3 25 3 -25 8 -87 13 -79 6z"/>
<path d="M5078 5573 c7 -3 16 -2 19 1 4 3 -2 6 -13 5 -11 0 -14 -3 -6 -6z"/>
<path d="M5188 5553 c7 -3 16 -2 19 1 4 3 -2 6 -13 5 -11 0 -14 -3 -6 -6z"/>
<path d="M5078 5533 c6 -2 18 -2 25 0 6 3 1 5 -13 5 -14 0 -19 -2 -12 -5z"/>
<path d="M5150 5525 c-30 -7 -44 -13 -30 -14 14 0 48 6 75 13 62 18 30 18 -45
1z"/>
<path d="M2841 5526 c2 -2 15 -9 29 -15 24 -11 24 -11 6 3 -16 13 -49 24 -35
12z"/>
<path d="M4975 5520 c-42 -11 -1 -11 50 -1 34 7 35 9 10 9 -16 0 -43 -4 -60
-8z"/>
<path d="M5068 5503 c7 -3 16 -2 19 1 4 3 -2 6 -13 5 -11 0 -14 -3 -6 -6z"/>
<path d="M2910 5486 c0 -2 8 -10 18 -17 15 -13 16 -12 3 4 -13 16 -21 21 -21
13z"/>
<path d="M4958 5483 c7 -3 16 -2 19 1 4 3 -2 6 -13 5 -11 0 -14 -3 -6 -6z"/>
<path d="M4888 5473 c6 -2 18 -2 25 0 6 3 1 5 -13 5 -14 0 -19 -2 -12 -5z"/>
<path d="M4813 5463 c9 -2 25 -2 35 0 9 3 1 5 -18 5 -19 0 -27 -2 -17 -5z"/>
<path d="M5068 5463 c7 -3 16 -2 19 1 4 3 -2 6 -13 5 -11 0 -14 -3 -6 -6z"/>
<path d="M4758 5453 c6 -2 18 -2 25 0 6 3 1 5 -13 5 -14 0 -19 -2 -12 -5z"/>
<path d="M2680 5420 c8 -5 20 -10 25 -10 6 0 3 5 -5 10 -8 5 -19 10 -25 10 -5
0 -3 -5 5 -10z"/>
<path d="M5018 5423 c7 -3 16 -2 19 1 4 3 -2 6 -13 5 -11 0 -14 -3 -6 -6z"/>
<path d="M4893 5373 c9 -2 23 -2 30 0 6 3 -1 5 -18 5 -16 0 -22 -2 -12 -5z"/>
<path d="M5028 5363 c7 -3 16 -2 19 1 4 3 -2 6 -13 5 -11 0 -14 -3 -6 -6z"/>
<path d="M2678 5323 c7 -3 16 -2 19 1 4 3 -2 6 -13 5 -11 0 -14 -3 -6 -6z"/>
<path d="M4843 5273 c9 -2 23 -2 30 0 6 3 -1 5 -18 5 -16 0 -22 -2 -12 -5z"/>
<path d="M5038 5273 c7 -3 16 -2 19 1 4 3 -2 6 -13 5 -11 0 -14 -3 -6 -6z"/>
<path d="M4763 5263 c9 -2 23 -2 30 0 6 3 -1 5 -18 5 -16 0 -22 -2 -12 -5z"/>
<path d="M4988 5263 c7 -3 16 -2 19 1 4 3 -2 6 -13 5 -11 0 -14 -3 -6 -6z"/>
<path d="M2918 5233 c7 -3 16 -2 19 1 4 3 -2 6 -13 5 -11 0 -14 -3 -6 -6z"/>
<path d="M3205 5214 c9 -9 19 -13 23 -10 3 4 0 11 -8 16 -24 15 -33 11 -15 -6z"/>
<path d="M4918 5223 c7 -3 16 -2 19 1 4 3 -2 6 -13 5 -11 0 -14 -3 -6 -6z"/>
<path d="M3148 5213 c7 -3 16 -2 19 1 4 3 -2 6 -13 5 -11 0 -14 -3 -6 -6z"/>
<path d="M4648 5213 c7 -3 16 -2 19 1 4 3 -2 6 -13 5 -11 0 -14 -3 -6 -6z"/>
<path d="M4868 5213 c6 -2 18 -2 25 0 6 3 1 5 -13 5 -14 0 -19 -2 -12 -5z"/>
<path d="M4808 5173 c6 -2 18 -2 25 0 6 3 1 5 -13 5 -14 0 -19 -2 -12 -5z"/>
<path d="M4958 5173 c7 -3 16 -2 19 1 4 3 -2 6 -13 5 -11 0 -14 -3 -6 -6z"/>
<path d="M4748 5163 c6 -2 18 -2 25 0 6 3 1 5 -13 5 -14 0 -19 -2 -12 -5z"/>
<path d="M4908 5163 c7 -3 16 -2 19 1 4 3 -2 6 -13 5 -11 0 -14 -3 -6 -6z"/>
<path d="M4653 5123 c9 -2 23 -2 30 0 6 3 -1 5 -18 5 -16 0 -22 -2 -12 -5z"/>
<path d="M4568 5113 c6 -2 18 -2 25 0 6 3 1 5 -13 5 -14 0 -19 -2 -12 -5z"/>
<path d="M4435 5055 c-5 -2 -36 -11 -68 -20 -32 -9 -56 -19 -54 -22 5 -4 62
11 147 38 20 6 21 7 5 7 -11 0 -24 -1 -30 -3z"/>
<path d="M4713 5033 c15 -2 37 -2 50 0 12 2 0 4 -28 4 -27 0 -38 -2 -22 -4z"/>
<path d="M2948 5023 c6 -2 18 -2 25 0 6 3 1 5 -13 5 -14 0 -19 -2 -12 -5z"/>
<path d="M3008 5013 c7 -3 16 -2 19 1 4 3 -2 6 -13 5 -11 0 -14 -3 -6 -6z"/>
<path d="M4788 5013 c12 -2 30 -2 40 0 9 3 -1 5 -23 4 -22 0 -30 -2 -17 -4z"/>
<path d="M3208 4983 c7 -3 16 -2 19 1 4 3 -2 6 -13 5 -11 0 -14 -3 -6 -6z"/>
<path d="M3058 4973 c6 -2 18 -2 25 0 6 3 1 5 -13 5 -14 0 -19 -2 -12 -5z"/>
<path d="M4783 4973 c15 -2 39 -2 55 0 15 2 2 4 -28 4 -30 0 -43 -2 -27 -4z"/>
<path d="M3128 4963 c7 -3 16 -2 19 1 4 3 -2 6 -13 5 -11 0 -14 -3 -6 -6z"/>
<path d="M4618 4963 c12 -2 30 -2 40 0 9 3 -1 5 -23 4 -22 0 -30 -2 -17 -4z"/>
<path d="M4423 4933 c9 -2 23 -2 30 0 6 3 -1 5 -18 5 -16 0 -22 -2 -12 -5z"/>
<path d="M4323 4923 c9 -2 25 -2 35 0 9 3 1 5 -18 5 -19 0 -27 -2 -17 -5z"/>
<path d="M4268 4913 c7 -3 16 -2 19 1 4 3 -2 6 -13 5 -11 0 -14 -3 -6 -6z"/>
<path d="M4688 4913 c6 -2 18 -2 25 0 6 3 1 5 -13 5 -14 0 -19 -2 -12 -5z"/>
<path d="M4268 4883 c7 -3 16 -2 19 1 4 3 -2 6 -13 5 -11 0 -14 -3 -6 -6z"/>
<path d="M3448 4873 c7 -3 16 -2 19 1 4 3 -2 6 -13 5 -11 0 -14 -3 -6 -6z"/>
<path d="M4208 4873 c7 -3 16 -2 19 1 4 3 -2 6 -13 5 -11 0 -14 -3 -6 -6z"/>
<path d="M3378 4863 c7 -3 16 -2 19 1 4 3 -2 6 -13 5 -11 0 -14 -3 -6 -6z"/>
<path d="M3530 4816 c0 -2 7 -7 16 -10 8 -3 12 -2 9 4 -6 10 -25 14 -25 6z"/>
<path d="M2788 4488 c-8 -13 -22 -43 -32 -68 -10 -25 -22 -53 -27 -62 -13 -25
-11 -35 6 -42 26 -9 165 144 165 182 0 8 -16 12 -49 12 -40 0 -51 -4 -63 -22z"/>
<path d="M793 4209 c-17 -5 -34 -18 -38 -29 -3 -10 -6 -254 -7 -540 0 -472 2
-523 17 -540 12 -13 23 -16 43 -11 37 10 41 40 38 264 -2 125 1 190 8 196 6 5
31 15 56 23 78 24 166 75 205 120 112 129 124 315 28 424 -66 75 -247 123
-350 93z m235 -121 c41 -25 68 -77 77 -149 6 -46 3 -65 -15 -108 -29 -67 -95
-125 -167 -148 -79 -25 -80 -23 -81 199 0 196 6 222 50 231 39 7 101 -5 136
-25z"/>
<path d="M1609 4201 l-24 -19 0 -530 c0 -507 1 -531 19 -551 18 -20 29 -21
216 -21 178 0 198 2 213 18 33 36 17 69 -39 83 -21 5 -92 10 -156 10 -74 0
-122 5 -133 13 -15 11 -17 56 -15 498 1 434 -1 488 -15 502 -21 21 -38 20 -66
-3z"/>
<path d="M2708 4203 c-19 -23 -38 -85 -78 -258 -17 -77 -41 -169 -51 -205 -18
-59 -70 -274 -104 -425 -7 -33 -23 -93 -34 -132 -12 -40 -21 -75 -21 -77 0 -3
18 -11 40 -17 37 -11 43 -10 61 8 21 21 26 35 59 188 33 156 41 183 55 195 8
6 44 10 91 8 75 -3 79 -4 92 -31 8 -16 25 -92 38 -169 13 -78 30 -152 37 -166
15 -33 73 -50 94 -29 12 12 10 33 -12 148 -14 74 -31 152 -36 174 -11 41 -28
116 -54 245 -8 41 -26 123 -40 181 -14 58 -25 119 -25 135 -1 45 -55 225 -71
235 -20 12 -24 11 -41 -8z m49 -385 c7 -24 20 -82 29 -130 22 -108 17 -118
-66 -118 -71 0 -87 14 -71 62 7 18 19 67 27 108 25 122 60 155 81 78z"/>
<path d="M4394 4210 c-104 -6 -127 -18 -122 -64 l3 -31 114 -2 c64 -2 119 -7
125 -13 8 -8 12 -172 13 -502 2 -534 2 -526 56 -513 53 14 52 3 54 518 1 265
5 487 7 494 4 9 32 13 103 14 129 1 147 7 151 45 5 54 -9 58 -221 59 -106 0
-233 -2 -283 -5z"/>
<path d="M5648 4206 c-17 -12 -18 -49 -20 -486 l-1 -473 -22 -25 c-20 -23 -31
-26 -85 -27 -57 0 -64 3 -90 31 -27 30 -28 36 -34 175 -3 79 -6 290 -5 468 1
261 -2 325 -13 332 -19 13 -86 11 -94 -2 -4 -6 -6 -215 -6 -464 1 -430 2 -454
22 -507 22 -58 41 -80 105 -119 33 -20 53 -24 111 -24 66 1 77 4 127 37 39 26
61 50 78 85 l24 48 -1 468 c-1 449 -1 468 -20 482 -24 18 -54 18 -76 1z"/>
<path d="M6153 4208 c-13 -6 -23 -23 -26 -42 -3 -17 -5 -257 -5 -534 0 -483 1
-503 20 -527 l19 -25 199 0 c167 0 201 2 214 16 22 22 20 61 -4 74 -27 14
-174 28 -241 22 -32 -2 -65 1 -77 7 -22 11 -22 12 -21 497 1 449 0 487 -17
505 -19 21 -29 22 -61 7z"/>
<path d="M7247 4202 c-15 -16 -68 -195 -87 -292 -5 -25 -16 -72 -25 -105 -18
-63 -32 -122 -59 -240 -9 -38 -23 -94 -32 -125 -9 -30 -22 -84 -29 -120 -8
-36 -20 -83 -28 -105 -9 -22 -18 -56 -22 -76 -6 -31 -4 -36 20 -47 14 -7 34
-12 45 -12 24 0 60 46 60 77 0 13 5 33 11 44 5 11 19 69 29 130 10 60 25 121
34 134 15 23 23 25 94 25 42 0 82 -4 87 -8 17 -12 41 -110 65 -266 14 -93 28
-118 69 -129 56 -14 64 2 47 103 -8 47 -21 104 -29 127 -9 22 -13 44 -10 47 3
3 -3 43 -15 88 -22 91 -48 206 -56 253 -3 17 -19 88 -35 160 -16 71 -27 133
-25 137 3 4 -1 18 -7 30 -7 13 -18 54 -25 92 -17 85 -44 114 -77 78z m50 -374
c6 -18 14 -61 18 -96 4 -34 11 -65 16 -68 11 -6 12 -64 1 -81 -12 -18 -120
-19 -138 -1 -13 12 -13 19 0 55 8 23 17 58 20 79 16 100 33 144 55 144 10 0
22 -13 28 -32z"/>
</g>
</svg>
